After a manslaughter conviction from drunk driving, nice but foolish Kent is sent to a prison over-crowded and unable to properly deal with it's inmates. There he meets veteran criminals like Morgan and his hardened pal Butch. And the system punishes them all, turning them against each other and bringing out the worst.

Chester Morris			Morgan
Wallace Beery			Butch
Lewis Stone			Warden
Robert Montgomery		Kent

   Video #0
      ID : 0
      Format : MPEG-4 Visual
      Format profile : Simple@L3
      Format settings, BVOP : No
      Format settings, QPel : No
      Format settings, GMC : No warppoints
      Format settings, Matrix : Default (H.263)
      Codec ID : XVID
      Codec ID/Hint : XviD
      Duration : 1h 26mn
      Bit rate : 996 Kbps
      Width : 720 pixels
      Height : 480 pixels
      Display aspect ratio : 1.500
      Frame rate : 29.970 fps
      Standard : NTSC
      Resolution : 24 bits
      Colorimetry : 4:2:0
      Scan type : Progressive
      Bits/(Pixel*Frame) : 0.096
      Stream size : 616 MiB (88%)
      Writing library : XviD 1.2.1 (UTC 2008-12-04)
   Audio #1
      ID : 1
      Format : MPEG Audio
      Format version : Version 1
      Format profile : Layer 3
      Codec ID : 55
      Codec ID/Hint : MP3
      Duration : 1h 26mn
      Bit rate mode : Variable
      Bit rate : 120 Kbps
      Channel(s) : 2 channels
      Sampling rate : 48.0 KHz
      Resolution : 16 bits
      Stream size : 74.0 MiB (11%)
      Alignment : Aligned on interleaves
      Interleave, duration : 24 ms (0.72 video frame)
      Interleave, preload duration : 513 ms
